<svg width="30" height="30" viewBox="0 0 30 30" fill="none" xmlns="http://www.w3.org/2000/svg">
<g id="fluent:book-number-20-regular">
<path id="Vector" d="M10.5 11.2575C10.5 11.0586 10.579 10.8678 10.7197 10.7272C10.8603 10.5865 11.0511 10.5075 11.25 10.5075H13.185L13.5165 8.8545C13.5604 8.66423 13.6767 8.49856 13.8408 8.3927C14.0048 8.28685 14.2037 8.24916 14.3952 8.28764C14.5866 8.32612 14.7555 8.43774 14.8659 8.59878C14.9763 8.75981 15.0196 8.95756 14.9865 9.15L14.7165 10.5075H16.1865L16.5165 8.856C16.5618 8.66762 16.6783 8.50408 16.8415 8.39967C17.0047 8.29525 17.202 8.25805 17.3921 8.29586C17.5821 8.33368 17.7501 8.44357 17.8609 8.60251C17.9717 8.76145 18.0167 8.95712 17.9865 9.1485L17.7165 10.5075H19.1265C19.3254 10.5075 19.5162 10.5865 19.6568 10.7272C19.7975 10.8678 19.8765 11.0586 19.8765 11.2575C19.8765 11.4564 19.7975 11.6472 19.6568 11.7878C19.5162 11.9285 19.3254 12.0075 19.1265 12.0075H17.4165L17.1165 13.5075H18.7515C18.9504 13.5075 19.1412 13.5865 19.2818 13.7272C19.4225 13.8678 19.5015 14.0586 19.5015 14.2575C19.5015 14.4564 19.4225 14.6472 19.2818 14.7878C19.1412 14.9285 18.9504 15.0075 18.7515 15.0075H16.818L16.491 16.647C16.4463 16.8362 16.3299 17.0007 16.1663 17.1058C16.0027 17.2109 15.8046 17.2483 15.614 17.2101C15.4233 17.172 15.2549 17.0613 15.1443 16.9014C15.0336 16.7415 14.9895 16.5449 15.021 16.353L15.288 15.0075H13.815L13.4865 16.647C13.4702 16.7463 13.434 16.8414 13.3802 16.9264C13.3263 17.0115 13.2559 17.0848 13.1731 17.1421C13.0904 17.1994 12.9969 17.2394 12.8983 17.2598C12.7997 17.2802 12.6981 17.2805 12.5994 17.2607C12.5006 17.241 12.4069 17.2016 12.3238 17.1449C12.2406 17.0881 12.1697 17.0152 12.1153 16.9305C12.0609 16.8458 12.0242 16.751 12.0072 16.6518C11.9902 16.5526 11.9934 16.451 12.0165 16.353L12.2865 15.0075H10.8795C10.6806 15.0075 10.4898 14.9285 10.3492 14.7878C10.2085 14.6472 10.1295 14.4564 10.1295 14.2575C10.1295 14.0586 10.2085 13.8678 10.3492 13.7272C10.4898 13.5865 10.6806 13.5075 10.8795 13.5075H12.585L12.885 12.0075H11.25C11.0511 12.0075 10.8603 11.9285 10.7197 11.7878C10.579 11.6472 10.5 11.4564 10.5 11.2575ZM15.588 13.5075L15.888 12.0075H14.415L14.115 13.5075H15.588ZM9 3H21.006C21.8017 3 22.5647 3.31607 23.1273 3.87868C23.6899 4.44129 24.006 5.20435 24.006 6V23.2515C24.006 23.4504 23.927 23.6412 23.7863 23.7818C23.6457 23.9225 23.4549 24.0015 23.256 24.0015H7.5C7.5004 24.3991 7.65861 24.7802 7.93987 25.0612C8.22113 25.3422 8.60244 25.5 9 25.5H23.256C23.4549 25.5 23.6457 25.579 23.7863 25.7197C23.927 25.8603 24.006 26.0511 24.006 26.25C24.006 26.4489 23.927 26.6397 23.7863 26.7803C23.6457 26.921 23.4549 27 23.256 27H9C8.20435 27 7.44129 26.6839 6.87868 26.1213C6.31607 25.5587 6 24.7956 6 24V6C6 5.20435 6.31607 4.44129 6.87868 3.87868C7.44129 3.31607 8.20435 3 9 3ZM7.5 22.5015H22.506V6C22.506 5.60218 22.348 5.22064 22.0667 4.93934C21.7854 4.65804 21.4038 4.5 21.006 4.5H9C8.60218 4.5 8.22064 4.65804 7.93934 4.93934C7.65804 5.22064 7.5 5.60218 7.5 6V22.5015Z" fill="#BDBDBD"/>
</g>
</svg>
